HIERARCHY
ROOT Hips
{
	OFFSET 0.00000 0.00000 0.00000
	CHANNELS 6 Xposition Yposition Zposition Zrotation Yrotation Xrotation 
	JOINT LHipJoint
	{
		OFFSET 0 0 0
		CHANNELS 3 Zrotation Yrotation Xrotation
		JOINT LeftHip
		{
			OFFSET 1.48831 -1.59570 0.95625
			CHANNELS 3 Zrotation Yrotation Xrotation
			JOINT LeftKnee
			{
				OFFSET 2.20856 -6.06797 0.00000
				CHANNELS 3 Zrotation Yrotation Xrotation
				JOINT LeftAnkle
				{
					OFFSET 2.62924 -7.22379 0.00000
					CHANNELS 3 Zrotation Yrotation Xrotation
					JOINT LeftToe
					{
						OFFSET 0.16802 -0.46163 2.41673
						CHANNELS 3 Zrotation Yrotation Xrotation
						End Site
						{
							OFFSET 0.00000 -0.00000 1.23760
						}
					}
				}
			}
		}
	}
	JOINT RHipJoint
	{
		OFFSET 0 0 0
		CHANNELS 3 Zrotation Yrotation Xrotation
		JOINT RightHip
		{
			OFFSET -1.56796 -1.59570 0.95625
			CHANNELS 3 Zrotation Yrotation Xrotation
			JOINT RightKnee
			{
				OFFSET -2.29239 -6.29829 0.00000
				CHANNELS 3 Zrotation Yrotation Xrotation
				JOINT RightAnkle
				{
					OFFSET -2.66963 -7.33475 0.00000
					CHANNELS 3 Zrotation Yrotation Xrotation
					JOINT RightToe
					{
						OFFSET -0.18185 -0.49964 2.34359
						CHANNELS 3 Zrotation Yrotation Xrotation
						End Site
						{
							OFFSET -0.00000 -0.00000 1.20477
						}
					}
				}
			}
		}
	}
	JOINT lowerback
	{
		OFFSET 0 0 0
		CHANNELS 3 Zrotation Yrotation Xrotation
		JOINT Chest
		{
			OFFSET 0.03505 2.15832 -0.34324
			CHANNELS 3 Zrotation Yrotation Xrotation
			JOINT Chest2
			{
				OFFSET -0.01089 2.17963 0.04689
				CHANNELS 3 Zrotation Yrotation Xrotation
				JOINT lowerneck
				{
					OFFSET 0 0 0
					CHANNELS 3 Zrotation Yrotation Xrotation
					JOINT Neck
					{
						OFFSET 0.04686 1.69404 0.22159
						CHANNELS 3 Zrotation Yrotation Xrotation
						JOINT Head
						{
							OFFSET 0.00265 1.69305 -0.01513
							CHANNELS 3 Zrotation Yrotation Xrotation
							End Site
							{
								OFFSET -0.00415 1.80215 -0.03034
							}
						}
					}
				}
				JOINT LeftCollar
				{
					OFFSET 0 0 0
					CHANNELS 3 Zrotation Yrotation Xrotation
					JOINT LeftShoulder
					{
						OFFSET 3.67184 1.11724 -0.19002
CHANNELS 3 Zrotation Xrotation Yrotation
						JOINT LeftElbow
						{
OFFSET 0 -5.177140 -0.000000
CHANNELS 3 Zrotation Xrotation Yrotation
							JOINT LeftWrist
							{
OFFSET 0 -3.436790 -0.000000
CHANNELS 3 Zrotation Xrotation Yrotation
								JOINT lhand
								{
									OFFSET 0 0 0
CHANNELS 3 Zrotation Xrotation Yrotation
									JOINT LFingers
									{
OFFSET 0 -0.573120 -0.000000
CHANNELS 3 Zrotation Xrotation Yrotation
										End Site
										{
OFFSET 0 -0.462060 -0.000000
										}
									}
								}
								JOINT LThumb
								{
OFFSET 0 0.000000 0.000000
CHANNELS 3 Zrotation Xrotation Yrotation
									End Site
									{
OFFSET 0 -0.469120 0.469120
									}
								}
							}
						}
					}
				}
				JOINT RightCollar
				{
					OFFSET 0 0 0
					CHANNELS 3 Zrotation Yrotation Xrotation
					JOINT RightShoulder
					{
						OFFSET -3.59596 0.95831 -0.26050
CHANNELS 3 Zrotation Xrotation Yrotation
						JOINT RightElbow
						{
OFFSET 0 -5.239080 -0.000000
CHANNELS 3 Zrotation Xrotation Yrotation
							JOINT RightWrist
							{
OFFSET 0 -3.464850 -0.000000
CHANNELS 3 Zrotation Xrotation Yrotation
								JOINT rhand
								{
									OFFSET 0 0 0
CHANNELS 3 Zrotation Xrotation Yrotation
									JOINT RFingers
									{
OFFSET 0 -0.608750 -0.000000
CHANNELS 3 Zrotation Xrotation Yrotation
										End Site
										{
OFFSET 0 -0.490790 -0.000000
										}
									}
								}
								JOINT RThumb
								{
OFFSET 0 0.000000 0.000000
CHANNELS 3 Zrotation Xrotation Yrotation
									End Site
									{
OFFSET 0 -0.498290 0.498290
									}
								}
							}
						}
					}
				}
			}
		}
	}
}
MOTION
Frames: 12
Frame Time: 0.008333333333333333
-3.538136 16.207108 -3.548918 -0.028718 -27.121186 9.552271 0.000000 0.000000 0.000000 -17.738487 2.841689 -27.847333 16.935456 19.771740 81.006596 0.002051 -4.797787 6.865095 0.101016 2.045454 5.631320 0.000000 0.000000 0.000000 24.865225 21.374818 -28.827002 -5.554773 -13.979261 43.161260 -1.184362 -7.785354 -24.740774 -0.209234 -2.945319 8.126487 1.963244 -4.745750 14.327619 3.056061 -5.903649 4.472165 3.084248 -2.959480 -3.133921 3.199693 0.109014 -4.711796 -4.299521 0.055760 1.056446 -1.901141 -0.028764 1.140312 0.000000 0.000000 0.000000 13.866186 -20.248851 -45.605682 13.961880 -22.678004 2.814762 27.782741 7.452657 -12.380479 0.000000 0.000000 0.000000 -7.125000 0.000000 0.000000 0.490911 43.913318 0.013431 0.000000 0.000000 0.000000 -14.709716 1.436915 26.238899 -17.883220 -28.006077 -4.495022 -23.718299 9.495695 6.813200 0.000000 0.000000 0.000000 7.125000 0.000000 0.000000 2.599836 37.403474 0.486399
-3.883610 16.464753 -3.159846 -0.881260 -27.172626 10.033304 0.000000 0.000000 0.000000 -15.217532 0.225674 -32.654613 18.095339 19.912315 84.423205 0.000769 0.005439 -0.430982 0.049459 1.431385 3.936517 0.000000 0.000000 0.000000 27.227232 19.649867 -23.502401 -4.211313 -12.429693 37.279489 -1.086973 -7.619583 -23.836213 -0.244511 -3.181734 8.785155 2.160120 -4.240513 13.977455 2.863614 -5.221646 4.188816 2.646936 -2.617440 -3.304088 2.803111 -0.283381 -4.921765 -3.395213 -0.461507 1.434736 -1.554994 -0.276084 1.271556 0.000000 0.000000 0.000000 18.321148 -16.705158 -40.827860 12.166329 -20.052194 2.159985 26.833161 8.112829 -12.469250 0.000000 0.000000 0.000000 -7.125000 0.000000 0.000000 -0.391890 43.897828 -0.010738 0.000000 0.000000 0.000000 -16.818124 -2.218918 29.121777 -19.149780 -29.603730 -5.104972 -22.870681 8.744311 7.198067 0.000000 0.000000 0.000000 7.125000 0.000000 0.000000 3.355630 37.765394 0.598060
-4.241709 16.692255 -2.756153 -1.740334 -27.026961 10.548449 0.000000 0.000000 0.000000 -12.635812 -2.386872 -36.834511 18.568729 19.950783 85.812094 0.034221 2.870644 -5.662872 0.014865 0.781459 2.147649 0.000000 0.000000 0.000000 29.401436 17.005598 -18.528003 -2.999119 -10.690492 31.246411 -0.955250 -6.935384 -22.220931 -0.301733 -3.531672 9.762701 2.304130 -3.822326 13.250847 2.778022 -4.677578 3.964150 2.342903 -2.347457 -3.181376 2.375893 -0.647118 -4.997151 -2.572858 -0.937702 1.796260 -1.233220 -0.501646 1.383110 0.000000 0.000000 0.000000 22.328298 -12.922175 -36.623198 10.735994 -17.882046 1.694349 26.122570 6.829106 -12.238769 0.000000 0.000000 0.000000 -7.125000 0.000000 0.000000 -1.017150 43.559362 -0.036244 0.000000 0.000000 0.000000 -18.586041 -5.819998 30.693184 -20.087885 -30.747833 -5.576340 -21.754233 8.513657 7.631339 0.000000 0.000000 0.000000 7.125000 0.000000 0.000000 4.352697 38.155408 0.735131
-4.599622 16.868719 -2.352216 -1.981122 -27.190986 10.735187 0.000000 0.000000 0.000000 -10.862571 -4.565255 -40.283298 18.268255 19.927515 84.930777 0.144958 2.568298 -8.605832 0.004278 -0.342896 -0.942226 0.000000 0.000000 0.000000 30.659462 13.737372 -14.530191 -2.138743 -9.144527 26.251909 -0.806735 -5.599837 -19.898945 -0.326783 -3.674036 10.161403 1.762611 -3.322078 12.596449 2.603275 -4.107201 3.655549 2.341378 -2.062438 -3.138104 1.904099 -0.977061 -4.830589 -1.854963 -1.360695 2.314623 -0.938867 -0.700574 1.511165 0.000000 0.000000 0.000000 25.935034 -9.003097 -32.892694 9.513147 -15.973680 1.338453 25.274723 4.464767 -12.026513 0.000000 0.000000 0.000000 -7.125000 0.000000 0.000000 -1.764657 43.229667 -0.077067 0.000000 0.000000 0.000000 -19.956657 -8.704516 31.198041 -21.175043 -32.031150 -6.142973 -20.700064 8.184558 7.819267 0.000000 0.000000 0.000000 7.125000 0.000000 0.000000 5.275355 38.282260 0.875662
-4.942019 16.989553 -1.936514 -1.908497 -27.692289 10.740263 0.000000 0.000000 0.000000 -9.938726 -6.260639 -42.982063 17.252792 19.818051 81.944322 0.286792 0.494415 -10.307419 0.053645 -1.494762 -4.111351 0.000000 0.000000 0.000000 31.229241 10.344782 -11.687897 -1.645121 -8.084174 22.970008 -0.670425 -3.789916 -17.303589 -0.299265 -3.517493 9.723022 1.174417 -2.788235 12.002744 2.254410 -3.490953 3.247547 2.194720 -1.751476 -3.244334 1.480161 -1.299620 -4.218891 -1.171055 -1.775887 2.814605 -0.660423 -0.894434 1.561191 0.000000 0.000000 0.000000 29.280376 -5.020689 -29.040581 8.476145 -14.321705 1.066865 23.897418 3.343284 -12.575040 0.000000 0.000000 0.000000 -7.125000 0.000000 0.000000 -3.092094 43.669776 -0.101580 0.000000 0.000000 0.000000 -20.974512 -10.913067 31.377166 -22.300730 -33.315201 -6.750248 -20.116556 7.354304 7.794742 0.000000 0.000000 0.000000 7.125000 0.000000 0.000000 5.770501 38.215522 0.967845
-5.277758 17.052843 -1.488198 -2.007473 -28.501984 10.657281 0.000000 0.000000 0.000000 -9.685015 -7.340580 -44.503366 15.476845 19.497885 76.666166 0.431733 -1.465218 -11.984024 0.124918 -2.274098 -6.263915 0.000000 0.000000 0.000000 31.613509 7.510956 -9.436747 -1.438435 -7.582331 21.452602 -0.566796 -1.881821 -15.029265 -0.246961 -3.197052 8.827886 1.065583 -2.213282 11.268306 1.804632 -2.767860 2.895341 1.659564 -1.389926 -3.246312 1.118929 -1.650761 -3.241384 -0.484661 -2.237958 3.354263 -0.389897 -1.112141 1.565181 0.000000 0.000000 0.000000 32.380810 -1.023770 -24.936791 7.748947 -13.144977 0.894335 22.561646 4.998142 -13.486065 0.000000 0.000000 0.000000 -7.125000 0.000000 0.000000 -4.459669 44.491409 -0.055406 0.000000 0.000000 0.000000 -21.688387 -12.769816 31.459996 -23.190281 -34.295804 -7.245425 -19.778815 6.277633 7.742492 0.000000 0.000000 0.000000 7.125000 0.000000 0.000000 6.051794 38.137031 1.027192
-5.618480 17.070228 -1.019028 -2.403443 -29.317693 10.532348 0.000000 0.000000 0.000000 -9.891526 -7.872856 -44.838564 13.050138 18.796521 69.277497 0.604746 -1.975551 -14.144140 0.249876 -3.213659 -8.874349 0.000000 0.000000 0.000000 32.108547 5.293030 -7.212368 -1.359737 -7.380863 20.848769 -0.484445 -0.316761 -13.267633 -0.205970 -2.921828 8.061310 1.359888 -1.651800 10.571132 1.414489 -2.014450 2.586803 0.967850 -1.016913 -3.222662 0.708918 -2.007133 -2.303756 0.206781 -2.718888 4.234414 -0.113022 -1.341113 1.693146 0.000000 0.000000 0.000000 35.206613 3.065234 -21.745608 7.469661 -12.689599 0.831776 22.019675 7.486307 -14.125423 0.000000 0.000000 0.000000 -7.125000 0.000000 0.000000 -5.074222 45.106317 0.013362 0.000000 0.000000 0.000000 -22.203893 -14.384135 31.540052 -23.939056 -35.099561 -7.671520 -19.493650 5.454498 7.785381 0.000000 0.000000 0.000000 7.125000 0.000000 0.000000 6.300383 38.162555 1.065769
-5.964446 17.056510 -0.539106 -2.885983 -29.988118 10.400050 0.000000 0.000000 0.000000 -10.648370 -7.798933 -44.105678 10.121203 17.465607 59.876973 0.813302 -1.410519 -16.616242 0.429076 -4.200963 -11.643133 0.000000 0.000000 0.000000 32.596229 3.194557 -4.943344 -1.291171 -7.199678 20.308272 -0.399572 0.857345 -11.670385 -0.176906 -2.708988 7.469578 1.745067 -1.165641 10.011441 1.123946 -1.346260 2.272600 0.354068 -0.688203 -3.259312 0.233614 -2.339851 -1.501685 0.877969 -3.181926 5.110305 0.168967 -1.564673 1.853019 0.000000 0.000000 0.000000 37.731009 7.292164 -20.657129 7.765527 -13.172012 0.898094 22.097680 7.750332 -14.681919 0.000000 0.000000 0.000000 -7.125000 0.000000 0.000000 -5.109644 45.706959 0.089358 0.000000 0.000000 0.000000 -22.496053 -15.761607 31.614130 -24.697642 -35.893039 -8.112146 -19.352189 5.192277 7.741598 0.000000 0.000000 0.000000 7.125000 0.000000 0.000000 6.414991 38.106790 1.094188
-6.317408 17.024298 -0.045331 -3.256413 -30.671402 10.359360 0.000000 0.000000 0.000000 -12.038123 -6.760926 -42.797383 7.077562 15.383777 49.143830 1.032057 -1.844194 -18.670537 0.584624 -4.893929 -13.606716 0.000000 0.000000 0.000000 32.920465 1.463215 -2.382334 -1.167394 -6.858266 19.296182 -0.319608 1.526659 -10.253881 -0.150448 -2.499064 6.886970 1.989464 -0.733479 9.283398 0.871283 -0.769692 1.988566 -0.125314 -0.404044 -3.153160 -0.179759 -2.641314 -0.885076 1.408691 -3.602980 5.466425 0.400954 -1.772306 1.880858 0.000000 0.000000 0.000000 39.941435 11.649410 -20.825936 8.530507 -14.408723 1.080726 22.007614 5.365497 -14.862788 0.000000 0.000000 0.000000 -7.125000 0.000000 0.000000 -5.229345 45.887168 0.114792 0.000000 0.000000 0.000000 -22.604486 -16.875926 31.793525 -25.635168 -36.845562 -8.668170 -19.515074 5.241723 7.542616 0.000000 0.000000 0.000000 7.125000 0.000000 0.000000 6.250280 37.908843 1.096288
-6.676085 16.962761 0.471170 -3.564885 -31.511059 10.464347 0.000000 0.000000 0.000000 -13.845475 -5.251233 -41.205104 4.472187 12.749954 38.461714 1.242132 -3.464150 -20.207444 0.862191 -5.918163 -16.548078 0.000000 0.000000 0.000000 33.073405 0.372777 0.653343 -0.998109 -6.357023 17.824170 -0.259633 1.846414 -9.157306 -0.107983 -2.117390 5.830241 2.269542 -0.295550 8.200291 0.585187 -0.194397 1.670252 -0.650199 -0.119375 -2.873072 -0.408897 -2.907433 -0.681334 1.657806 -3.969351 5.661219 0.511564 -1.954557 1.923015 0.000000 0.000000 0.000000 41.974810 16.428377 -22.039827 9.741762 -16.333853 1.402064 21.769913 1.308327 -14.986982 0.000000 0.000000 0.000000 -7.125000 0.000000 0.000000 -5.476031 45.987632 0.133863 0.000000 0.000000 0.000000 -22.482357 -17.361375 32.122032 -26.905207 -38.087778 -9.440893 -20.033323 5.148709 7.334293 0.000000 0.000000 0.000000 7.125000 0.000000 0.000000 5.783860 37.723594 1.040108
-7.038456 16.861043 1.008697 -3.896913 -32.439099 10.676534 0.000000 0.000000 0.000000 -15.422565 -4.045998 -39.653991 2.764599 10.294595 29.944888 1.388014 -5.279201 -21.170608 1.155143 -6.822952 -19.192184 0.000000 0.000000 0.000000 32.937163 -0.896252 3.815802 -0.816456 -5.764501 16.102979 -0.193946 2.622523 -7.826328 -0.047315 -1.394509 3.835250 2.715791 0.155870 6.813941 0.263941 0.401035 1.205796 -1.288222 0.174328 -2.558253 -0.538346 -3.137727 -0.959650 1.721246 -4.287921 6.175837 0.538588 -2.110688 2.149421 0.000000 0.000000 0.000000 43.869841 21.591930 -23.747144 11.136141 -18.495613 1.819597 21.605385 -2.838711 -14.954040 0.000000 0.000000 0.000000 -7.125000 0.000000 0.000000 -5.622275 45.931385 0.129588 0.000000 0.000000 0.000000 -21.992432 -17.026935 32.516143 -28.464093 -39.538516 -10.418357 -20.689649 4.741247 7.204329 0.000000 0.000000 0.000000 7.125000 0.000000 0.000000 5.211323 37.628907 0.948617
-7.405672 16.719528 1.557811 -4.167757 -33.380095 10.847688 0.000000 0.000000 0.000000 -16.664740 -2.669825 -38.638496 1.956456 8.773547 25.090451 1.348768 -7.995901 -20.774898 1.315190 -7.263697 -20.498917 0.000000 0.000000 0.000000 32.337460 -2.772739 6.968945 -0.637630 -5.108096 14.217368 -0.100491 4.124652 -5.925284 -0.009219 -0.616768 1.694828 3.057832 0.583216 5.195443 -0.013127 0.945236 0.620036 -1.795137 0.442741 -2.224542 -0.697432 -3.337975 -1.473664 1.707787 -4.563386 6.841018 0.540703 -2.246075 2.469721 0.000000 0.000000 0.000000 45.261174 26.562927 -24.538267 12.207048 -20.114312 2.173149 21.181950 -5.971700 -14.468174 0.000000 0.000000 0.000000 -7.125000 0.000000 0.000000 -5.914796 45.364452 0.053304 0.000000 0.000000 0.000000 -21.266170 -16.180785 33.100025 -30.076949 -40.958652 -11.460188 -21.007169 4.051413 7.192271 0.000000 0.000000 0.000000 7.125000 0.000000 0.000000 4.940277 37.636837 0.898039
